<svg width="45" height="48" xmlns="http://www.w3.org/2000/svg">
 <title/>

 <g>
  <title>background</title>
  <rect fill="none" id="canvas_background" height="50" width="47" y="-1" x="-1"/>
 </g>
 <g>
  <title>Layer 1</title>
  <path stroke="null" fill="#b2b2b2" id="svg_1" d="m41.230968,19.271457l-2.708259,0l0,2.827239l2.708259,0l0,19.790675l-37.915629,0l0,-19.790675l18.957814,0l0,-2.827239l-18.957814,0a2.708259,2.827239 0 0 0 -2.708259,2.827239l0,19.790675a2.708259,2.827239 0 0 0 2.708259,2.827239l37.915629,0a2.708259,2.827239 0 0 0 2.708259,-2.827239l0,-19.790675a2.708259,2.827239 0 0 0 -2.708259,-2.827239z"/>
  <path stroke="null" fill="#b2b2b2" id="svg_2" d="m30.141784,34.601568a1.595835,1.627304 0 0 0 2.250128,0l3.191671,-3.254608a1.595835,1.627304 0 0 0 0.478751,-1.155386l0,-26.036868a1.595835,1.627304 0 0 0 -1.595835,-1.627304l-6.383342,0a1.595835,1.627304 0 0 0 -1.595835,1.627304l0,26.036868a1.595835,1.627304 0 0 0 0.462792,1.155386l3.191671,3.254608zm-0.462792,-20.683037l3.191671,0l0,15.605848l-1.595835,1.627304l-1.595835,-1.627304l0,-15.605848z"/>
  <path stroke="null" fill="#b2b2b2" id="svg_3" d="m11.581154,36.625559l10.545294,0l0,-2.343399l-12.888692,0a2.343399,2.343399 0 0 0 2.343399,2.343399z"/>
  <path stroke="null" fill="#b2b2b2" id="svg_4" d="m21.733527,30.399601l0,-2.20236l-8.023598,0a2.674533,2.20236 0 0 0 2.674533,2.20236l5.349065,0z"/>
 </g>
</svg>