<svg width="48" height="48" xmlns="http://www.w3.org/2000/svg">

 <g>
  <title>background</title>
  <rect fill="none" id="canvas_background" height="402" width="582" y="-1" x="-1"/>
 </g>
 <g>
  <title>Layer 1</title>
  <path stroke="null" fill="#b2b2b2" id="svg_1" fill-rule="evenodd" d="m46.671717,45.449801l-45.607851,0c-0.573208,0 -1.036542,-0.463334 -1.036542,-1.036542s0.463334,-1.036542 1.036542,-1.036542l45.607851,0c0.573208,0 1.036542,0.463334 1.036542,1.036542s-0.463334,1.036542 -1.036542,1.036542zm-31.096262,-10.365421c0.573208,0 1.036542,0.463334 1.036542,1.036542s-0.463334,1.036542 -1.036542,1.036542l-8.292337,0c-0.573208,0 -1.036542,-0.463334 -1.036542,-1.036542s0.463334,-1.036542 1.036542,-1.036542l1.036542,0l0,-13.475047l-1.036542,0c-0.573208,0 -1.036542,-0.463334 -1.036542,-1.036542c0,-0.572171 0.463334,-1.036542 1.036542,-1.036542l8.292337,0c0.573208,0 1.036542,0.464371 1.036542,1.036542c0,0.573208 -0.463334,1.036542 -1.036542,1.036542l-1.036542,0l0,13.475047l1.036542,0zm-3.109626,-13.475047l-2.073084,0l0,13.475047l2.073084,0l0,-13.475047zm15.548131,13.475047c0.573208,0 1.036542,0.463334 1.036542,1.036542s-0.463334,1.036542 -1.036542,1.036542l-8.292337,0c-0.573208,0 -1.036542,-0.463334 -1.036542,-1.036542s0.463334,-1.036542 1.036542,-1.036542l1.036542,0l0,-13.475047l-1.036542,0c-0.573208,0 -1.036542,-0.463334 -1.036542,-1.036542c0,-0.572171 0.463334,-1.036542 1.036542,-1.036542l8.292337,0c0.573208,0 1.036542,0.464371 1.036542,1.036542c0,0.573208 -0.463334,1.036542 -1.036542,1.036542l-1.036542,0l0,13.475047l1.036542,0zm-3.109626,-13.475047l-2.073084,0l0,13.475047l2.073084,0l0,-13.475047zm19.694299,18.657757c0,0.573208 -0.463334,1.036542 -1.036542,1.036542l-39.388599,0c-0.573208,0 -1.036542,-0.463334 -1.036542,-1.036542s0.463334,-1.036542 1.036542,-1.036542l39.388599,0c0.573208,0 1.036542,0.463334 1.036542,1.036542zm-4.146168,-5.18271c0.573208,0 1.036542,0.463334 1.036542,1.036542s-0.463334,1.036542 -1.036542,1.036542l-8.292337,0c-0.573208,0 -1.036542,-0.463334 -1.036542,-1.036542s0.463334,-1.036542 1.036542,-1.036542l1.036542,0l0,-13.475047l-1.036542,0c-0.573208,0 -1.036542,-0.463334 -1.036542,-1.036542c0,-0.572171 0.463334,-1.036542 1.036542,-1.036542l8.292337,0c0.573208,0 1.036542,0.464371 1.036542,1.036542c0,0.573208 -0.463334,1.036542 -1.036542,1.036542l-1.036542,0l0,13.475047l1.036542,0zm-3.109626,-13.475047l-2.073084,0l0,13.475047l2.073084,0l0,-13.475047zm-35.242431,-6.219252l21.767384,-11.855968l21.767384,11.855968l0,2.073084l-43.534767,0l0,-2.073084zm38.912826,0l-17.145442,-8.864508l-17.210745,8.864508l34.356187,0z" clip-rule="evenodd"/>
 </g>
</svg>