<svg width="48" height="48" xmlns="http://www.w3.org/2000/svg">

 <g>
  <title>background</title>
  <rect fill="none" id="canvas_background" height="402" width="582" y="-1" x="-1"/>
 </g>
 <g>
  <title>Layer 1</title>
  <path fill="#4d73af" stroke="null" id="svg_1" fill-rule="evenodd" d="m46.660721,48.080482l-46.091758,0c-0.57929,0 -1.04754,-0.46825 -1.04754,-1.04754s0.46825,-1.04754 1.04754,-1.04754l46.091758,0c0.57929,0 1.04754,0.46825 1.04754,1.04754s-0.46825,1.04754 -1.04754,1.04754zm-31.426198,-10.475399c0.57929,0 1.04754,0.46825 1.04754,1.04754s-0.46825,1.04754 -1.04754,1.04754l-8.38032,0c-0.57929,0 -1.04754,-0.46825 -1.04754,-1.04754s0.46825,-1.04754 1.04754,-1.04754l1.04754,0l0,-13.618019l-1.04754,0c-0.57929,0 -1.04754,-0.46825 -1.04754,-1.04754c0,-0.578242 0.46825,-1.04754 1.04754,-1.04754l8.38032,0c0.57929,0 1.04754,0.469298 1.04754,1.04754c0,0.57929 -0.46825,1.04754 -1.04754,1.04754l-1.04754,0l0,13.618019l1.04754,0zm-3.14262,-13.618019l-2.09508,0l0,13.618019l2.09508,0l0,-13.618019zm15.713099,13.618019c0.57929,0 1.04754,0.46825 1.04754,1.04754s-0.46825,1.04754 -1.04754,1.04754l-8.38032,0c-0.57929,0 -1.04754,-0.46825 -1.04754,-1.04754s0.46825,-1.04754 1.04754,-1.04754l1.04754,0l0,-13.618019l-1.04754,0c-0.57929,0 -1.04754,-0.46825 -1.04754,-1.04754c0,-0.578242 0.46825,-1.04754 1.04754,-1.04754l8.38032,0c0.57929,0 1.04754,0.469298 1.04754,1.04754c0,0.57929 -0.46825,1.04754 -1.04754,1.04754l-1.04754,0l0,13.618019l1.04754,0zm-3.14262,-13.618019l-2.09508,0l0,13.618019l2.09508,0l0,-13.618019zm19.903259,18.855719c0,0.57929 -0.46825,1.04754 -1.04754,1.04754l-39.806518,0c-0.57929,0 -1.04754,-0.46825 -1.04754,-1.04754s0.46825,-1.04754 1.04754,-1.04754l39.806518,0c0.57929,0 1.04754,0.46825 1.04754,1.04754zm-4.19016,-5.2377c0.57929,0 1.04754,0.46825 1.04754,1.04754s-0.46825,1.04754 -1.04754,1.04754l-8.38032,0c-0.57929,0 -1.04754,-0.46825 -1.04754,-1.04754s0.46825,-1.04754 1.04754,-1.04754l1.04754,0l0,-13.618019l-1.04754,0c-0.57929,0 -1.04754,-0.46825 -1.04754,-1.04754c0,-0.578242 0.46825,-1.04754 1.04754,-1.04754l8.38032,0c0.57929,0 1.04754,0.469298 1.04754,1.04754c0,0.57929 -0.46825,1.04754 -1.04754,1.04754l-1.04754,0l0,13.618019l1.04754,0zm-3.14262,-13.618019l-2.09508,0l0,13.618019l2.09508,0l0,-13.618019zm-35.616358,-6.28524l21.998339,-11.981762l21.998339,11.981762l0,2.09508l-43.996678,0l0,-2.09508zm39.325697,0l-17.327358,-8.958562l-17.393353,8.958562l34.720712,0z" clip-rule="evenodd"/>
  <ellipse ry="10" rx="10" id="svg_2" cy="11" cx="10.087741" stroke-width="1.5" fill="#ffde1b"/>
  <line stroke-linecap="null" stroke-linejoin="null" id="svg_6" y2="11.755364" x2="10.39292" y1="4.53675" x1="10.39292" fill-opacity="null" stroke-opacity="null" stroke-width="2.5" stroke="#ffffff" fill="none"/>
  <line stroke="#ffffff" stroke-linecap="null" stroke-linejoin="null" id="svg_7" y2="16.199203" x2="14.638226" y1="11.012274" x1="10" fill-opacity="null" stroke-opacity="null" stroke-width="2.5" fill="none"/>
 </g>
</svg>